<svg xmlns="http://www.w3.org/2000/svg" version="1.1" xmlns:xlink="http://www.w3.org/1999/xlink" xmlns:svgjs="http://svgjs.dev/svgjs" width="1000" height="1000" viewBox="0 0 1000 1000"><rect width="1000" height="1000" fill="#ffffff"></rect><g transform="matrix(0.7,0,0,0.7,149.57575920159422,378.12108392317106)"><svg viewBox="0 0 396 138" data-background-color="#ffffff" preserveAspectRatio="xMidYMid meet" height="348" width="1000" xmlns="http://www.w3.org/2000/svg" xmlns:xlink="http://www.w3.org/1999/xlink"><defs></defs><g id="tight-bounds" transform="matrix(1,0,0,1,0.2399990802409775,0.0447105277622768)"><svg viewBox="0 0 395.52 137.91058332033955" height="137.91058332033955" width="395.52"><g><svg viewBox="0 0 395.52 137.91058332033955" height="137.91058332033955" width="395.52"><g transform="matrix(1,0,0,1,0,85.23427319017544)"><svg viewBox="0 0 395.52 52.67631013016412" height="52.67631013016412" width="395.52"><g><svg viewBox="0 0 395.52 52.67631013016412" height="52.67631013016412" width="395.52"><g><svg viewBox="0 0 395.52 52.67631013016412" height="52.67631013016412" width="395.52"><g transform="matrix(1,0,0,1,0,0)"><svg width="395.52" viewBox="0.699999988079071 -34.79999923706055 265.0299987792969 35.29999923706055" height="52.67631013016412" data-palette-color="#bb84e8"><g class="undefined-text-0" data-fill-palette-color="primary" id="text-0"><path d="M40.4-34.3L45.15-34.3 35.1 0 30.1 0 23.1-24.8 22.75-24.8 15.5 0 10.5 0 0.7-34.3 5.95-34.3 13.2-8.45 13.5-8.45 20.8-34.3 25.55-34.3 32.8-8.45 33.1-8.45 40.4-34.3ZM50.4-34.3L72.9-34.3 72.25-29.85 55.3-29.85 55.3-19.75 70.65-19.75 70.65-15.3 55.3-15.3 55.3-4.45 72.55-4.45 73.25 0 50.4 0 50.4-34.3ZM91.15-34.8Q96.8-34.8 100.02-32.3 103.25-29.8 103.25-25.2L103.25-25.2 103.25-24.6 98.35-24.6 98.35-25.35Q98.35-27.75 96.4-29.05 94.45-30.35 91.25-30.35L91.25-30.35Q87.7-30.35 85.72-29.18 83.75-28 83.75-25.8L83.75-25.8Q83.75-24.15 84.87-23.1 86-22.05 87.67-21.45 89.35-20.85 92.3-20.1L92.3-20.1Q96.1-19.1 98.45-18.15 100.8-17.2 102.47-15.3 104.15-13.4 104.15-10.25L104.15-10.25Q104.15-4.65 100.72-2.08 97.3 0.5 91.1 0.5L91.1 0.5Q84.9 0.5 81.47-2.13 78.05-4.75 78.05-9.75L78.05-9.75 78.1-10.75 83-10.75 82.95-9.7Q82.95-6.8 85.12-5.38 87.3-3.95 91.15-3.95L91.15-3.95Q94.9-3.95 97.07-5.33 99.25-6.7 99.25-9.1L99.25-9.1Q99.25-11 98.07-12.18 96.9-13.35 95.12-14 93.35-14.65 90.3-15.45L90.3-15.45Q86.55-16.45 84.3-17.35 82.05-18.25 80.45-20.13 78.85-22 78.85-25.05L78.85-25.05Q78.85-30 82.2-32.4 85.55-34.8 91.15-34.8L91.15-34.8ZM111.39-34.3L133.89-34.3 133.24-29.85 116.29-29.85 116.29-19.75 131.64-19.75 131.64-15.3 116.29-15.3 116.29-4.45 133.54-4.45 134.24 0 111.39 0 111.39-34.3ZM150.04-34.3L155.44-34.3 168.84 0 163.54 0 160.64-7.45 144.24-7.45 141.39 0 136.64 0 150.04-34.3ZM158.94-11.9L152.64-28.4 152.34-28.4 145.99-11.9 158.94-11.9ZM188.24-34.3Q192.79-34.3 195.71-32.15 198.64-30 198.64-26.25L198.64-26.25Q198.64-22.9 196.86-20.55 195.09-18.2 192.49-17.7L192.49-17.7 192.49-17.45Q194.89-16.5 196.44-14.15 197.99-11.8 197.99-8.5L197.99-8.5Q197.99-5.75 198.29-4.35 198.59-2.95 199.09-2.4 199.59-1.85 200.54-1.55L200.54-1.55 200.54-0.15Q199.44 0.3 198.19 0.3L198.19 0.3Q195.79 0.3 194.44-1.13 193.09-2.55 193.09-6.5L193.09-6.5Q193.09-10.55 191.41-12.83 189.74-15.1 187.24-15.1L187.24-15.1 178.54-15.1 178.54 0 173.64 0 173.64-34.3 188.24-34.3ZM188.29-29.85L178.54-29.85 178.54-19.55 188.29-19.55Q190.44-19.55 192.09-21 193.74-22.45 193.74-24.6L193.74-24.6 193.74-24.8Q193.74-27 192.24-28.43 190.74-29.85 188.29-29.85L188.29-29.85ZM219.74-34.8Q223.74-34.8 226.74-33.15 229.74-31.5 231.36-28.43 232.99-25.35 232.99-21.15L232.99-21.15 228.09-21.15Q228.09-25.5 225.94-27.93 223.79-30.35 219.74-30.35L219.74-30.35Q215.24-30.35 212.89-27.58 210.54-24.8 210.54-19.4L210.54-19.4 210.54-14.9Q210.54-9.55 212.84-6.75 215.14-3.95 219.64-3.95L219.64-3.95Q223.84-3.95 226.06-6.35 228.29-8.75 228.29-13.05L228.29-13.05 232.99-13.05Q232.99-8.9 231.36-5.85 229.74-2.8 226.74-1.15 223.74 0.5 219.74 0.5L219.74 0.5Q213.09 0.5 209.36-3.58 205.64-7.65 205.64-14.9L205.64-14.9 205.64-19.4Q205.64-26.6 209.36-30.7 213.09-34.8 219.74-34.8L219.74-34.8ZM260.83-34.3L265.73-34.3 265.73 0 260.83 0 260.83-15.3 245.18-15.3 245.18 0 240.28 0 240.28-34.3 245.18-34.3 245.18-19.75 260.83-19.75 260.83-34.3Z" fill="#bb84e8" data-fill-palette-color="primary"></path></g></svg></g></svg></g></svg></g></svg></g><g transform="matrix(1,0,0,1,161.08307582035872,0)"><svg viewBox="0 0 73.35384835928257 72.79866059988682" height="72.79866059988682" width="73.35384835928257"><g><svg xmlns="http://www.w3.org/2000/svg" xmlns:xlink="http://www.w3.org/1999/xlink" version="1.1" x="0" y="0" viewBox="29.46099853515625 26.73800277709961 46.553306579589844 46.20096206665039" enable-background="new 0 0 100 100" xml:space="preserve" height="72.79866059988682" width="73.35384835928257" class="icon-icon-0" data-fill-palette-color="accent" id="icon-0"><g fill="#b19dd0" data-fill-palette-color="accent"><g fill="#b19dd0" data-fill-palette-color="accent"><g fill="#b19dd0" data-fill-palette-color="accent"><g fill="#b19dd0" data-fill-palette-color="accent"><path d="M69.902 72.704L58.967 61.769c-2.997 1.961-6.579 3.111-10.444 3.111-10.539 0-19.062-8.542-19.062-19.081 0-10.519 8.522-19.061 19.062-19.061 10.521 0 19.06 8.542 19.06 19.061 0 3.679-1.036 7.107-2.828 10.011l11.013 11.011c0.583 0.567 0.094 1.981-1.076 3.148l-1.64 1.644C71.882 72.78 70.468 73.269 69.902 72.704zM61.249 45.799c0-7.033-5.695-12.727-12.727-12.727-7.033 0-12.745 5.694-12.745 12.727 0 7.033 5.712 12.745 12.745 12.745C55.554 58.544 61.249 52.833 61.249 45.799z" fill="#b19dd0" data-fill-palette-color="accent"></path></g></g></g></g></svg></g></svg></g><g></g></svg></g></svg><rect width="395.52" height="137.91058332033955" fill="none" stroke="none" visibility="hidden"></rect></g></svg></g></svg>